<svg width="60" height="60" fill="none" xmlns="http://www.w3.org/2000/svg"><path d="M30.55 51.625c-.45.45-1.25.525-1.775 0a1.26 1.26 0 0 1 0-1.775l8.475-8.475-3.525-3.525-8.475 8.475c-.475.5-1.275.475-1.775 0a1.26 1.26 0 0 1 0-1.775l8.475-8.475-3.525-3.525-8.475 8.475c-.45.45-1.25.525-1.775 0a1.283 1.283 0 0 1 0-1.775l8.475-8.475-3.55-3.525-8.475 8.475c-.45.45-1.25.525-1.775 0a1.283 1.283 0 0 1 0-1.775L23.8 23l4.675 4.65c2.375 2.375 6.475 2.35 8.85 0a6.247 6.247 0 0 0 0-8.85l-4.65-4.65.7-.7a5.01 5.01 0 0 1 7.075 0l10.6 10.6a5.01 5.01 0 0 1 0 7.075l-20.5 20.5Zm24.025-16.95a10.02 10.02 0 0 0 0-14.15l-10.6-10.6a10.02 10.02 0 0 0-14.15 0l-.7.7-.7-.7a10.02 10.02 0 0 0-14.15 0l-8.85 8.85a9.98 9.98 0 0 0-1 12.975l3.625-3.625a5 5 0 0 1 .925-5.825l8.85-8.85a5.01 5.01 0 0 1 7.075 0l8.9 8.9c.45.45.525 1.25 0 1.775-.525.525-1.325.45-1.775 0l-8.225-8.2L9.3 30.4c-2.45 2.425-2.45 6.4 0 8.85A6.15 6.15 0 0 0 12.85 41a6.145 6.145 0 0 0 5.3 5.3 6.145 6.145 0 0 0 5.3 5.3 6.077 6.077 0 0 0 1.75 3.55 6.22 6.22 0 0 0 4.425 1.825 6.22 6.22 0 0 0 4.425-1.825l20.525-20.475Z" fill="#C6B198"/></svg>