<svg width="25" height="25" fill="none" xmlns="http://www.w3.org/2000/svg"><path d="M24.119 14.588c.128-.705.197-1.425.197-2.146 0-1.598-.313-3.149-.929-4.606a11.785 11.785 0 0 0-2.531-3.763 11.743 11.743 0 0 0-3.754-2.535c-1.456-.617-3-.93-4.594-.93-.75 0-1.503.072-2.235.213A7.021 7.021 0 0 0 6.988 0c-1.865 0-3.622.73-4.94 2.052A6.965 6.965 0 0 0 0 7.006c0 1.19.306 2.362.878 3.396-.115.67-.178 1.357-.178 2.04 0 1.598.313 3.149.928 4.606a11.777 11.777 0 0 0 2.529 3.763 11.745 11.745 0 0 0 3.753 2.535c1.457.617 3 .93 4.595.93.693 0 1.387-.062 2.069-.185a6.98 6.98 0 0 0 3.438.909 6.924 6.924 0 0 0 4.94-2.052A6.96 6.96 0 0 0 25 17.994a6.983 6.983 0 0 0-.881-3.406Zm-2.754 6.768a4.678 4.678 0 0 1-3.35 1.391 4.727 4.727 0 0 1-2.332-.617l-.703-.398-.797.141c-.556.1-1.119.15-1.675.15a9.458 9.458 0 0 1-3.723-.755 9.49 9.49 0 0 1-3.037-2.052 9.536 9.536 0 0 1-2.798-6.77c0-.546.05-1.104.144-1.655l.138-.787-.388-.698a4.741 4.741 0 0 1-.597-2.3c0-1.272.49-2.46 1.388-3.359.9-.9 2.084-1.391 3.353-1.391a4.772 4.772 0 0 1 2.232.56l.7.37.775-.15c.59-.113 1.2-.172 1.813-.172 1.294 0 2.54.254 3.719.752a9.487 9.487 0 0 1 3.038 2.052 9.506 9.506 0 0 1 2.05 3.045 9.5 9.5 0 0 1 .75 3.729c0 .576-.053 1.16-.16 1.739l-.146.799.394.708c.394.705.6 1.504.6 2.31a4.71 4.71 0 0 1-1.388 3.358Zm-6.632-10.29-2.763-.614c-1.05-.24-2.26-.557-2.26-1.55 0-.994.848-1.69 2.379-1.69 3.085 0 2.803 2.125 4.335 2.125.806 0 1.513-.476 1.513-1.29 0-1.906-3.045-3.338-5.626-3.338-2.804 0-5.788 1.194-5.788 4.371 0 1.53.544 3.158 3.55 3.913l3.732.934c1.128.279 1.412.915 1.412 1.492 0 .955-.947 1.889-2.662 1.889-3.35 0-2.885-2.585-4.679-2.585-.806 0-1.39.558-1.39 1.35 0 1.548 1.874 3.616 6.069 3.616 3.99 0 5.97-1.927 5.97-4.512 0-1.663-.766-3.434-3.792-4.11Z" fill="#fff"/></svg>