<svg width="25" height="25" fill="none" xmlns="http://www.w3.org/2000/svg"><path fill-rule="evenodd" clip-rule="evenodd" d="M18.228 14.981c-.312-.155-1.841-.903-2.126-1.007-.285-.103-.492-.154-.7.156-.207.309-.803 1.006-.984 1.213-.182.207-.363.232-.674.078-.31-.156-1.314-.482-2.502-1.537-.924-.82-1.549-1.834-1.73-2.144-.18-.31-.02-.478.136-.632.14-.138.311-.361.467-.541.156-.182.207-.31.311-.518.105-.206.052-.386-.026-.542-.078-.155-.7-1.679-.959-2.299-.252-.603-.509-.52-.7-.53-.181-.01-.389-.011-.596-.011-.207 0-.544.077-.829.387-.285.31-1.088 1.059-1.088 2.582s1.113 2.995 1.27 3.203c.155.206 2.192 3.333 5.312 4.673.743.32 1.322.51 1.773.652.746.236 1.424.203 1.96.122.596-.088 1.84-.748 2.1-1.471.258-.723.258-1.343.18-1.472-.077-.13-.284-.207-.596-.362Zm-5.675 7.712h-.004c-1.854 0-3.673-.496-5.267-1.436l-.377-.223-3.917 1.023 1.046-3.8-.246-.39a10.235 10.235 0 0 1-1.582-5.478C2.208 6.71 6.85 2.093 12.557 2.093a10.3 10.3 0 0 1 7.314 3.018 10.194 10.194 0 0 1 3.027 7.284c-.002 5.678-4.643 10.298-10.345 10.298Zm8.805-19.06A12.37 12.37 0 0 0 17.32.938 12.418 12.418 0 0 0 12.552 0C5.692 0 .107 5.557.105 12.387a12.312 12.312 0 0 0 1.66 6.193L0 25l6.598-1.723a12.482 12.482 0 0 0 5.95 1.508h.005c6.86 0 12.445-5.557 12.447-12.388a12.262 12.262 0 0 0-.94-4.745 12.309 12.309 0 0 0-2.702-4.019Z" fill="#000"/></svg>