<svg width="25" height="25" fill="none" xmlns="http://www.w3.org/2000/svg"><g clip-path="url(#a)"><path d="M21.252 3.634A12.273 12.273 0 0 0 12.49 0C5.667 0 .106 5.56.1 12.384c0 2.186.572 4.313 1.652 6.196L0 25l6.569-1.722a12.395 12.395 0 0 0 5.922 1.508h.006c6.825 0 12.384-5.56 12.39-12.39a12.34 12.34 0 0 0-3.637-8.762h.002ZM12.49 22.69a10.28 10.28 0 0 1-5.244-1.437l-.375-.225-3.897 1.021 1.04-3.801-.243-.392a10.25 10.25 0 0 1-1.574-5.477c0-5.665 4.62-10.287 10.299-10.287a10.25 10.25 0 0 1 7.281 3.017 10.246 10.246 0 0 1 3.013 7.281c-.007 5.686-4.627 10.3-10.3 10.3Zm5.648-7.71c-.308-.154-1.828-.902-2.114-1.009-.284-.101-.492-.154-.695.155-.208.308-.802 1.01-.98 1.211-.178.208-.362.231-.672.078-.308-.156-1.306-.481-2.487-1.539-.922-.82-1.54-1.836-1.724-2.144-.178-.309-.017-.475.138-.63.136-.137.307-.362.462-.54.156-.178.208-.31.31-.516.101-.209.053-.387-.024-.542-.078-.154-.695-1.681-.956-2.297-.25-.607-.505-.523-.695-.53-.179-.012-.386-.012-.594-.012a1.14 1.14 0 0 0-.827.386c-.284.31-1.08 1.058-1.08 2.584 0 1.527 1.11 2.994 1.266 3.202.153.208 2.178 3.331 5.286 4.675.735.32 1.313.51 1.764.653.742.238 1.413.202 1.947.125.594-.09 1.83-.75 2.09-1.473.257-.725.257-1.344.179-1.474-.077-.131-.285-.208-.594-.362Z" fill="#fff"/></g><defs><clipPath id="a"><path fill="#fff" d="M0 0h25v25H0z"/></clipPath></defs></svg>