<svg width="233" height="47" fill="none" xmlns="http://www.w3.org/2000/svg"><path d="M11.64 46.83c-1.384-.363-2.828-.604-4.14-1.108-3.311-1.273-5.274-3.66-6.239-6.615-1.395-4.279-.631-8.354 2.23-12.027 1.776-2.282 4.306-3.65 7.53-3.733.679-.017 1.481.27 2.02.644.41.284.58.92.651 1.423.018.125-.743.406-1.178.497-4.319.901-6.952 3.318-7.965 7.038-.412 1.509-.584 3.104-.57 4.657.032 3.475 2.996 6.089 6.929 6.436 3.166.28 6.024-.33 8.606-1.952.235-.149.466-.305.679-.475.118-.096.194-.23.284-.343-3.155-3.764-2.767-7.863-1.352-11.954 1.144-3.31 2.954-6.353 6.015-8.681 3.795-2.887 8.117-4.243 13.14-3.371 1.04.18 1.486-.149 1.962-.864 2.67-4.022 5.68-7.83 9.68-10.936 2.4-1.865 5.13-3.26 8.386-3.578.755-.073 1.869.033 2.251.454.361.397.128 1.36-.106 2-1.578 4.298-3.382 8.537-4.819 12.872-2.075 6.263-3.041 12.722-3.83 19.193-.2 1.633-.163 3.288-.234 4.933-.032.766-.163 1.524-1.199 1.69-1.17.184-1.854-.493-2.106-1.342-.332-1.12-.578-2.291-.597-3.445-.062-3.643-.57-7.224-1.79-10.703-.894-2.546-2.354-4.814-4.954-6.673-4.344 7.036-7.9 14.38-14.414 20.457 2.595-.009 4.568-.537 6.26-1.746 2.18-1.56 3.673-3.545 4.574-5.89.192-.5.507-1.012.926-1.38.232-.203.909-.269 1.177-.116.29.166.558.724.455 1-1.705 4.579-4.352 8.511-10.016 9.965-1.51.388-3.208.187-4.813.322-.662.056-1.404.15-1.94.456-2.288 1.31-4.666 2.381-7.426 2.665-.28.03-.549.15-.823.23H11.64Zm26.12-26.968c-2.907-.366-5.491-.128-7.82 1.07-6.848 3.518-9.813 10.26-8.627 16.78.131.72.696 1.38 1.149 2.238 6.326-6.16 10.397-13.242 15.298-20.088ZM55.43 4.815c-.46.208-.98.35-1.368.633-1.434 1.043-3.07 1.968-4.181 3.24-2.548 2.916-4.83 6.009-7.222 9.028-.499.63-.246 1.057.414 1.453 2.25 1.343 3.654 3.245 4.588 5.449.289.683.569 1.371.854 2.056l.417.01c.966-7.543 2.351-14.982 6.498-21.869Z" fill="url(#a)"/><path d="M209.966 27.78c.434-1.084.711-2.247 1.342-3.235.676-1.057 1.588-2.039 2.589-2.875.456-.38 1.382-.475 2.084-.449 1.136.043 1.854 1.052 1.255 1.887-.803 1.121-1.877 2.097-2.883 3.098-.323.322-.795.528-1.195.79-1.819 1.187-2.06 1.968-1.183 3.813.822 1.727 3.084 2.181 4.543.623 1.391-1.486 2.372-3.3 3.326-5.057.748-1.374 1.137-2.894 1.785-4.314.136-.299.693-.597 1.084-.626.988-.077 1.993.025 2.99.007.768-.013 1.119.2.85.908-1.372 3.596-2.759 7.189-4.097 10.795-.293.792-.551 1.637-.551 2.457 0 .59.314 1.556.745 1.682.702.207 1.845.109 2.388-.292 1.09-.806 2.043-1.826 2.795-2.898 1.109-1.578 1.993-3.278 2.972-4.927.115-.194.176-.434.345-.576.297-.25.658-.441.993-.656.087.388.394.878.228 1.146-1.475 2.404-3.022 4.774-4.578 7.137-.224.34-.59.613-.913.897-1.409 1.232-2.904 2.215-5.077 1.497-2.462-.816-3.816-2.37-4.126-4.644-.048-.362-.032-.73-.058-1.094-.005-.066-.07-.13-.188-.337-1.484.73-3.218 1.493-4.72.54-1.249-.792-2.047-2.134-3.17-3.37-.7 1.346-1.52 2.834-2.247 4.353-.579 1.209-1.026 2.467-1.577 3.686-.123.27-.437.658-.682.67-1.438.063-2.88.03-4.58.03.89-2.322 1.713-4.368 2.455-6.438.932-2.605 1.844-5.217 2.652-7.852.159-.522-.192-1.166-.307-1.754-.639.344-1.524.557-1.872 1.057-1.099 1.58-2.004 3.263-2.97 4.914-1.944 3.324-3.987 6.587-7.449 8.929-5.073 3.43-10.247.572-12.133-2.75-.276-.484-.514-.987-.821-1.58-.877 1.13-1.678 2.18-2.507 3.217-.31.387-.667.748-1.03 1.1-3.078 2.982-6.274 1.152-7.63-1.047-.422-.685-.622-1.476-1.018-2.45-.47.546-.83 1-1.233 1.424-.876.92-1.677 1.918-2.684 2.713-1.58 1.248-3.248 1.225-5.02.165-1.716-1.027-2.572-2.51-2.948-4.597-.617.99-.966 1.764-1.525 2.398-.776.882-1.57 1.843-2.605 2.439-1.73.995-3.633.624-5.499-.747-3.475-2.555-4.186-6.913-1.525-10.275 2.363-2.987 5.739-4.859 9.626-5.942 1.768-.494 3.649-.522 5.043 1.114 1.249-1.91 3.202-.628 4.774-.979.052-.012.515.706.419.985-.752 2.2-1.615 4.37-2.401 6.562-.661 1.843-1.307 3.693-1.882 5.557-.403 1.302-.062 2.552.718 2.791 1.331.409 2.236-.355 2.826-1.167 1.694-2.328 3.651-4.602 4.756-7.15 2.967-6.838 5.555-13.805 8.264-20.728.376-.96.795-1.644 2.179-1.319.541.128 1.159.025 1.74-.007 1.292-.07 1.465.098 1.052 1.218-.6 1.632-1.242 3.252-1.857 4.88-1.854 4.915-3.714 9.83-5.552 14.752-.686 1.836-1.373 3.675-1.951 5.539a8.96 8.96 0 0 0-.384 2.703c.01 1.347 1.27 1.914 2.454 1.041 1.033-.76 2.004-1.69 2.664-2.715 1.155-1.792 2.07-3.704 3.054-5.58 1.15-2.196 2.989-3.84 5.261-5.145 2.205-1.267 4.481-2.426 7.193-2.549.89-.041 1.89.004 2.678.32 3.001 1.207 3.377 4.186.536 5.719-2.152 1.161-4.69 1.786-7.088 2.572-.925.303-1.956.347-2.909.599-.389.102-.889.383-1.01.686-.618 1.536-.981 3.1-.188 4.701.471.95 1.213 1.54 2.404 1.667 1.959.21 3.698-.212 5.235-1.322 2.838-2.05 4.509-4.81 6.204-7.592 1.288-2.112 2.689-4.198 4.313-6.118 1.581-1.87 3.921-1.669 5.512.23.934 1.112 1.252 2.361 1.139 3.724-.039.451-.006.907-.006 1.361.119.022.242.042.364.06Zm-62.457 6.311c.108 1.38.025 2.786 1.636 3.303 1.705.549 2.658-.608 3.571-1.634a.758.758 0 0 0 .067-.093c1.329-2.137 2.796-4.222 3.942-6.433.795-1.534 1.38-3.216 1.638-4.883.272-1.754-1.103-2.46-2.972-1.75-2.134.812-3.38 2.416-4.569 4.055-1.683 2.326-3.076 4.751-3.313 7.435ZM186 29.198c1.931-.347 5.156-1.797 6.83-3.143.631-.507 1.252-1.107 1.597-1.777.235-.455.168-1.2-.119-1.63-.183-.274-1.058-.368-1.557-.274-2.097.395-6.469 4.83-6.751 6.824Z" fill="url(#b)"/><path d="M92.577 33.265c-.599.828-1.174 1.67-1.805 2.477-.47.6-.96 1.197-1.529 1.723-2.626 2.437-6.382 1.758-7.746-1.407-.334-.775-.506-1.604-.813-2.608-.325.443-.57.788-.826 1.126-.667.88-1.26 1.816-2.022 2.627-2.542 2.703-6.169 2.189-7.838-1.024-1.028-1.979-.54-3.83.292-5.719.762-1.73 1.503-3.473 2.097-5.252.168-.506-.03-1.518-.377-1.65-.602-.229-1.567-.135-2.176.154-1.885.892-2.927 2.52-3.707 4.152-1.522 3.189-2.83 6.457-4.165 9.711-.311.759-.7 1.213-1.676 1.132-.495-.041-.998-.024-1.498-.032-1.773-.033-1.884-.163-1.31-1.661 1.218-3.18 2.47-6.35 3.656-9.536.322-.863.56-1.773.635-2.674.038-.465-.363-.957-.565-1.438-.47.254-1.123.412-1.378.78-.9 1.306-1.652 2.69-2.484 4.033-.346.561-.754 1.094-1.133 1.639l-.551-.177c.038-.426-.068-.92.141-1.267.937-1.542 1.841-3.119 2.987-4.54 1.932-2.395 4.587-2.085 6.017.623.342.648.551 1.352.861 2.131.627-.876 1.14-1.695 1.763-2.444 2.826-3.402 6.676-2.054 8.342 1.01 1 1.838.332 3.59-.255 5.331-.519 1.536-1.274 3.01-1.81 4.541-.308.88-.795 1.99.347 2.608 1.245.673 2.232-.246 2.79-1.034 1.465-2.063 2.716-4.245 4.084-6.365.42-.652 1.017-1.22 1.398-1.887.534-.936.944-1.927 1.401-2.897.047-.1.057-.214.093-.32.61-1.788.608-1.772-1.487-2.02-.279-.033-.518-.327-.776-.5.251-.137.537-.427.75-.39 2.202.378 3.053-.643 3.43-2.35.188-.849.588-1.672.98-2.475.137-.282.523-.64.823-.661 1.15-.078 2.31-.031 3.667-.031l-1.882 5.576h4.057l.154.44c-.353.168-.689.428-1.064.484-.568.084-1.18.108-1.742.014-1.4-.236-1.9.44-2.246 1.462-1.103 3.25-2.279 6.482-3.369 9.735-.206.616-.23 1.303-.196 1.953.074 1.403 1.234 1.904 2.583 1.109 1.839-1.085 2.72-2.823 3.702-4.463.674-1.128 1.2-2.323 1.795-3.487.084-.166.137-.384.286-.478 1.811-1.13 1.769-3.049 2.56-4.61.05-.098.052-.215.09-.319.595-1.684.595-1.683 2.638-1.648 2.512.046 2.571.06 1.857 2.154-.975 2.865-2.062 5.699-3.078 8.554-.273.764-.646 1.555-.632 2.33.014.733.24 1.695.8 2.131.798.622 1.827.047 2.38-.59 1.203-1.383 2.387-2.806 3.331-4.33 1.184-1.91 2.143-3.909 3.704-5.646 1.876-2.089 4.081-3.76 6.923-4.678 2.918-.942 5.253.418 5.608 3.152.22 1.69-.051 3.288-1.231 4.686-.997 1.182-2.272 1.356-3.446.522-1.072-.763-1.153-2.11-.088-3.097.563-.523 1.267-.933 1.932-1.367 1.012-.66 1.332-1.592.78-2.37-.535-.755-1.633-.877-2.76-.258-1.829 1.002-2.672 2.65-3.541 4.271-1.134 2.114-1.795 4.309-1.525 6.68.34 2.987 2.99 4.151 5.866 2.53 2.321-1.309 3.689-3.331 5.047-5.345.571-.845 1.033-1.748 1.629-2.578.178-.249.641-.339.975-.5.047.355.281.819.11 1.052-1.697 2.332-3.192 4.837-5.265 6.883-4.035 3.98-10.679 2.403-12.388-2.76-.14-.424-.386-.821-.641-1.349-.985 1.382-1.828 2.586-2.699 3.774-.269.366-.602.698-.931 1.027-1.269 1.272-2.784 2.002-4.751 1.461-1.94-.532-3.534-2.409-3.646-4.204-.027-.43-.005-.86-.005-1.29-.096-.012-.202-.033-.308-.052Z" fill="url(#c)"/><path d="M128.425 40.844c1.002-.992 2.071-1.937 2.993-2.984 3.8-4.313 6.424-9.197 8.623-14.251 1.391-3.198 2.736-6.44 3.655-9.758.82-2.958 1.094-6.042 1.451-9.085.073-.619-.407-1.42-.91-1.921-.543-.541-.631-1.078-.133-1.414.809-.547 1.765-1.109 2.735-1.242 1.08-.149 1.983.558 2.372 1.479.327.774.56 1.61.628 2.432.238 2.886-.476 5.688-1.314 8.438a76.065 76.065 0 0 1-7.329 16.596c-2.435 4.118-5.062 8.143-8.635 11.61-1.515 1.47-3.18 2.77-5.398 3.423-1.514.445-2.906.348-4.092-.578-1.1-.86-1.168-1.957-.854-3.212 1.168-4.667 2.444-9.326 3.276-14.043.917-5.204 1.444-10.48.18-15.714a9.205 9.205 0 0 0-1.76-3.572c-2.106-2.582-6.831-2.066-8.273.826-.201.401-.035.935-.192 1.365-.183.506-.431 1.27-.829 1.372-.594.15-1.547.007-1.991-.351-.953-.77-.872-1.85-.403-2.858 1.282-2.756 3.899-3.918 7.027-4.238 5.279-.541 8.396 1.904 10.454 5.917 1.368 2.67 1.73 5.543 1.848 8.448a55.776 55.776 0 0 1-1.682 16.01c-.55 2.172-1.138 4.338-1.696 6.509-.052.2-.007.417-.007.627.082.058.169.114.256.17Z" fill="url(#d)"/><path d="M228.283 16.543c-.005 1.392-1.486 2.71-3.005 2.678-1.369-.03-2.509-1.058-2.5-2.255.01-1.34 1.531-2.706 3.011-2.702 1.318.003 2.498 1.082 2.494 2.279Z" fill="url(#e)"/><path d="M99.801 20.27c-1.317-.008-2.28-.91-2.271-2.12.012-1.363 1.23-2.486 2.696-2.486 1.329 0 2.313.9 2.304 2.11-.009 1.306-1.32 2.505-2.729 2.497Z" fill="url(#f)"/><defs><linearGradient id="a" x1="30.664" y1="46.829" x2="30.664" y2="1.866" gradientUnits="userSpaceOnUse"><stop stop-color="#B88521"/><stop offset="1" stop-color="#6E5222"/></linearGradient><linearGradient id="b" x1="187.793" y1="38.898" x2="187.793" y2="6.956" gradientUnits="userSpaceOnUse"><stop stop-color="#B88521"/><stop offset="1" stop-color="#6E5222"/></linearGradient><linearGradient id="c" x1="89.47" y1="38.997" x2="89.47" y2="16.694" gradientUnits="userSpaceOnUse"><stop stop-color="#B88521"/><stop offset="1" stop-color="#6E5222"/></linearGradient><linearGradient id="d" x1="130.882" y1="44.425" x2="130.882" y2=".171" gradientUnits="userSpaceOnUse"><stop stop-color="#B88521"/><stop offset="1" stop-color="#6E5222"/></linearGradient><linearGradient id="e" x1="225.53" y1="19.222" x2="225.53" y2="14.264" gradientUnits="userSpaceOnUse"><stop stop-color="#B88521"/><stop offset="1" stop-color="#6E5222"/></linearGradient><linearGradient id="f" x1="100.031" y1="20.27" x2="100.031" y2="15.663" gradientUnits="userSpaceOnUse"><stop stop-color="#B88521"/><stop offset="1" stop-color="#6E5222"/></linearGradient></defs></svg>