<svg width="63" height="62" fill="none" xmlns="http://www.w3.org/2000/svg"><path fill-rule="evenodd" clip-rule="evenodd" d="M59.715 37.986a1.022 1.022 0 0 1 .1-.765A24.886 24.886 0 0 0 63 25C63 11.193 51.807 0 38 0S13 11.193 13 25s11.193 25 25 25c4.44 0 8.608-1.157 12.222-3.186.232-.13.507-.168.764-.1l10.251 2.748a1 1 0 0 0 1.225-1.225l-2.747-10.251Z" fill="#F1F1F1"/><path fill-rule="evenodd" clip-rule="evenodd" d="M25 56c13.807 0 25-11.193 25-25S38.807 6 25 6 0 17.193 0 31a24.92 24.92 0 0 0 7.198 17.552c.188.191.297.448.297.717v10.74a1 1 0 0 0 1.5.865l9.73-5.617a.014.014 0 0 0 0-.024c-.014-.007-.005-.028.01-.024 2.002.516 4.102.791 6.265.791Z" fill="#C6B198"/><circle cx="12.5" cy="30.5" r="3.5" fill="#fff"/><circle cx="24.5" cy="30.5" r="3.5" fill="#fff"/><circle cx="36.5" cy="30.5" r="3.5" fill="#fff"/></svg>