<svg width="50" height="50" fill="none" xmlns="http://www.w3.org/2000/svg"><g clip-path="url(#a)"><path d="m13.215 42.823.818.404c3.406 2.02 7.22 2.963 11.035 2.963 11.99 0 21.799-9.696 21.799-21.546 0-5.656-2.316-11.177-6.403-15.217-4.088-4.04-9.538-6.33-15.396-6.33-11.99 0-21.799 9.696-21.662 21.682 0 4.04 1.226 7.945 3.27 11.311l.544.808-2.18 7.945 8.175-2.02Z" fill="#00E676"/><path d="M42.78 7.272C38.148 2.559 31.744 0 25.205 0 11.308 0 .136 11.177.272 24.778c0 4.31 1.227 8.484 3.27 12.254L0 49.826l13.215-3.367c3.679 2.02 7.766 2.963 11.854 2.963C38.829 49.422 50 38.244 50 24.644c0-6.599-2.589-12.794-7.22-17.372h-.001ZM25.205 45.247c-3.679 0-7.357-.942-10.49-2.828l-.818-.404-7.902 2.02 2.043-7.675-.545-.809C1.5 25.991 4.36 13.331 14.17 7.406c9.81-5.925 22.48-3.097 28.475 6.599 5.994 9.696 3.133 22.22-6.676 28.145-3.134 2.02-6.949 3.097-10.763 3.097ZM37.194 30.3l-1.499-.674s-2.18-.942-3.542-1.616c-.136 0-.272-.135-.409-.135-.409 0-.68.135-.953.27 0 0-.137.134-2.044 2.29a.75.75 0 0 1-.681.403h-.136c-.137 0-.41-.135-.545-.27l-.682-.268c-1.498-.674-2.86-1.482-3.95-2.56-.273-.268-.682-.538-.954-.807-.954-.943-1.908-2.02-2.589-3.232l-.136-.27c-.136-.134-.136-.269-.273-.538 0-.27 0-.539.137-.673 0 0 .545-.674.953-1.078.273-.269.409-.673.682-.942.272-.404.408-.943.272-1.347-.136-.673-1.771-4.31-2.18-5.117-.272-.404-.545-.539-.953-.674h-1.5c-.272 0-.544.135-.817.135l-.136.135c-.273.135-.545.404-.817.538-.273.27-.41.54-.682.809-.953 1.211-1.498 2.693-1.498 4.174 0 1.077.272 2.155.681 3.097l.136.404c1.226 2.559 2.861 4.848 5.041 6.868l.545.539c.409.404.818.673 1.09 1.077 2.861 2.424 6.13 4.175 9.81 5.117.408.135.953.135 1.362.27h1.362c.681 0 1.499-.27 2.044-.539.409-.27.681-.27.953-.538l.273-.27c.273-.27.545-.404.818-.673.272-.27.544-.539.68-.808.273-.539.41-1.212.546-1.885v-.943s-.137-.135-.41-.27Z" fill="#fff"/></g><defs><clipPath id="a"><path fill="#fff" d="M0 0h50v50H0z"/></clipPath></defs></svg>