<svg width="233" height="47" viewBox="0 0 233 47" fill="none" xmlns="http://www.w3.org/2000/svg">
<path d="M11.6392 46.8291C10.2556 46.4674 8.81162 46.2264 7.50035 45.7222C4.18897 44.4491 2.22575 42.0619 1.2611 39.1072C-0.134252 34.828 0.629797 30.7531 3.4913 27.0796C5.2672 24.7982 7.79683 23.4296 11.0212 23.3473C11.6997 23.3296 12.5021 23.6163 13.0419 23.9911C13.4505 24.2749 13.6216 24.9114 13.6924 25.4141C13.7101 25.5391 12.949 25.8198 12.5139 25.911C8.19508 26.8121 5.5622 29.2288 4.54887 32.9493C4.13735 34.4576 3.96477 36.0525 3.97952 37.6063C4.0105 41.0814 6.97525 43.695 10.9076 44.0419C14.0744 44.3212 16.9315 43.7127 19.5142 42.0898C19.7488 41.9413 19.9803 41.7855 20.1927 41.615C20.3107 41.5194 20.3874 41.3842 20.4774 41.2725C17.3224 37.5078 17.7103 33.4094 19.1248 29.3184C20.2694 26.008 22.0793 22.9651 25.1399 20.6366C28.9351 17.7495 33.2568 16.3942 38.2792 17.2659C39.3191 17.4467 39.766 17.1174 40.2424 16.4015C42.9122 12.3796 45.9212 8.57232 49.9214 5.46621C52.3227 3.60078 55.0514 2.20575 58.3082 1.88823C59.0634 1.81473 60.177 1.92057 60.5591 2.34246C60.9204 2.73936 60.6874 3.70221 60.4529 4.34166C58.8746 8.63994 57.0707 12.8794 55.634 17.2144C53.5587 23.4766 52.5926 29.9358 51.8035 36.4068C51.6043 38.0399 51.6412 39.6952 51.5704 41.3401C51.538 42.106 51.4067 42.8645 50.3712 43.0291C49.2001 43.2143 48.5172 42.5367 48.2649 41.6885C47.9331 40.5683 47.6867 39.3967 47.6676 38.2428C47.6056 34.6001 47.0982 31.0192 45.8784 27.5397C44.9845 24.9937 43.5243 22.7255 40.9239 20.8674C36.58 27.9028 33.0238 35.2469 26.5102 41.3239C29.1047 41.3151 31.0782 40.7874 32.7701 39.5776C34.9501 38.0179 36.4428 36.0334 37.344 33.6887C37.5358 33.1875 37.8514 32.6759 38.2703 32.3084C38.5019 32.1055 39.1789 32.0394 39.4474 32.1923C39.7365 32.3584 40.0049 32.9155 39.9017 33.1919C38.1966 37.7709 35.5504 41.7032 29.8864 43.157C28.376 43.5451 26.6783 43.3437 25.0735 43.4789C24.4112 43.5348 23.6693 43.6289 23.1339 43.9346C20.8447 45.2444 18.467 46.316 15.7073 46.5997C15.427 46.6291 15.1585 46.7497 14.8842 46.8291C13.8045 46.8291 12.7218 46.8291 11.6392 46.8291ZM37.7615 19.8634C34.8542 19.4974 32.27 19.7355 29.941 20.9321C23.0926 24.4513 20.1278 31.1927 21.3137 37.7121C21.445 38.4324 22.0099 39.0925 22.4628 39.9509C28.789 33.7902 32.86 26.7092 37.7615 19.8634ZM55.4305 4.81647C54.9718 5.02374 54.4511 5.16633 54.0632 5.44857C52.6295 6.49227 50.9937 7.4169 49.8815 8.68992C47.3342 11.6049 45.0524 14.6978 42.6599 17.7172C42.1614 18.3463 42.4136 18.7741 43.0744 19.1695C45.3238 20.5131 46.728 22.4153 47.6617 24.6188C47.9508 25.3024 48.231 25.9903 48.5157 26.6754C48.6543 26.6783 48.7945 26.6812 48.9331 26.6842C49.8992 19.1416 51.2843 11.7034 55.4305 4.81647Z" fill="url(#paint0_linear_133_3)"/>
<path d="M209.966 27.7806C210.4 26.6957 210.677 25.533 211.308 24.5451C211.984 23.4882 212.896 22.5062 213.897 21.6698C214.353 21.2891 215.279 21.195 215.981 21.2215C217.117 21.2641 217.835 22.2725 217.236 23.1075C216.433 24.2291 215.359 25.2052 214.353 26.2062C214.03 26.5282 213.558 26.734 213.158 26.9956C211.339 28.1834 211.098 28.9639 211.975 30.8088C212.797 32.536 215.059 32.9903 216.518 31.4321C217.909 29.9459 218.89 28.1319 219.844 26.3753C220.592 25.0008 220.981 23.4808 221.629 22.0608C221.765 21.7624 222.322 21.464 222.713 21.4346C223.701 21.3582 224.706 21.4596 225.703 21.442C226.471 21.4287 226.822 21.6419 226.553 22.3504C225.181 25.946 223.794 29.5387 222.456 33.1446C222.163 33.937 221.905 34.7822 221.905 35.6025C221.905 36.1919 222.219 37.1577 222.65 37.2842C223.352 37.4914 224.495 37.3929 225.038 36.9916C226.128 36.1861 227.081 35.1659 227.833 34.0942C228.942 32.5155 229.826 30.8161 230.805 29.1668C230.92 28.9728 230.981 28.7332 231.15 28.5906C231.447 28.3407 231.808 28.1496 232.143 27.9349C232.23 28.323 232.537 28.8125 232.371 29.0815C230.896 31.485 229.349 33.8546 227.793 36.2184C227.569 36.558 227.203 36.8314 226.88 37.1151C225.471 38.347 223.976 39.3304 221.803 38.6116C219.341 37.7957 217.987 36.2419 217.677 33.9678C217.629 33.6062 217.645 33.2387 217.619 32.8742C217.614 32.808 217.549 32.7448 217.431 32.5375C215.947 33.2666 214.213 34.0296 212.711 33.077C211.462 32.2847 210.664 30.9426 209.541 29.7063C208.841 31.0528 208.021 32.5405 207.294 34.0604C206.715 35.2688 206.268 36.5271 205.717 37.7457C205.594 38.0162 205.28 38.4043 205.035 38.416C203.597 38.4793 202.155 38.4469 200.455 38.4469C201.345 36.1243 202.168 34.0781 202.91 32.0083C203.842 29.4035 204.754 26.7913 205.562 24.1556C205.721 23.6337 205.37 22.9899 205.255 22.4019C204.616 22.7458 203.731 22.959 203.383 23.4588C202.284 25.039 201.379 26.7222 200.413 28.373C198.469 31.6967 196.426 34.9601 192.964 37.3018C187.891 40.7313 182.717 37.8736 180.831 34.5529C180.555 34.0678 180.317 33.565 180.01 32.9726C179.133 34.1016 178.332 35.1526 177.503 36.189C177.193 36.5756 176.836 36.9372 176.473 37.2886C173.395 40.2712 170.199 38.441 168.843 36.2419C168.421 35.5569 168.221 34.766 167.825 33.7914C167.355 34.3383 166.995 34.7925 166.592 35.2159C165.716 36.1361 164.915 37.1342 163.908 37.9295C162.328 39.1775 160.66 39.154 158.888 38.0941C157.172 37.0666 156.316 35.5848 155.94 33.4974C155.323 34.4867 154.974 35.2614 154.415 35.895C153.639 36.777 152.845 37.7384 151.81 38.3337C150.08 39.3289 148.177 38.9585 146.311 37.587C142.836 35.0321 142.125 30.6736 144.786 27.3117C147.149 24.3246 150.525 22.4533 154.412 21.3699C156.18 20.876 158.061 20.8481 159.455 22.4842C160.704 20.5747 162.657 21.8565 164.229 21.5052C164.281 21.4934 164.744 22.2108 164.648 22.4901C163.896 24.6907 163.033 26.8604 162.247 29.0522C161.586 30.8955 160.94 32.7448 160.365 34.6087C159.962 35.9112 160.303 37.1607 161.083 37.4003C162.414 37.8089 163.319 37.0445 163.909 36.2331C165.603 33.9046 167.56 31.6305 168.665 29.083C171.632 22.2446 174.22 15.2782 176.929 8.35455C177.305 7.39464 177.724 6.71109 179.108 7.03596C179.649 7.16385 180.267 7.06095 180.848 7.02861C182.14 6.95805 182.313 7.1271 181.9 8.24724C181.3 9.87894 180.658 11.4989 180.043 13.1262C178.189 18.0418 176.329 22.9575 174.491 27.8791C173.805 29.7151 173.118 31.5541 172.54 33.418C172.27 34.2868 172.149 35.2188 172.156 36.1214C172.166 37.4679 173.426 38.0353 174.61 37.1621C175.643 36.4021 176.614 35.4716 177.274 34.447C178.429 32.6551 179.344 30.7427 180.328 28.8669C181.478 26.6708 183.317 25.0273 185.589 23.7219C187.794 22.4548 190.07 21.2964 192.782 21.173C193.672 21.1318 194.672 21.1774 195.46 21.4934C198.461 22.7003 198.837 25.6785 195.996 27.2117C193.844 28.373 191.306 28.9978 188.908 29.7842C187.983 30.087 186.952 30.1311 185.999 30.3825C185.61 30.4854 185.11 30.7662 184.989 31.069C184.371 32.6051 184.008 34.1692 184.801 35.77C185.272 36.7197 186.014 37.3091 187.205 37.437C189.164 37.6472 190.903 37.2253 192.44 36.1155C195.278 34.0648 196.949 31.3042 198.644 28.5229C199.932 26.4106 201.333 24.3246 202.957 22.4048C204.538 20.535 206.878 20.7364 208.469 22.6341C209.403 23.7469 209.721 24.9964 209.608 26.3591C209.569 26.8104 209.602 27.2661 209.602 27.7203C209.721 27.7424 209.844 27.7615 209.966 27.7806ZM147.509 34.0913C147.617 35.4702 147.534 36.877 149.145 37.3944C150.85 37.9427 151.803 36.7858 152.716 35.7598C152.741 35.7304 152.763 35.6995 152.783 35.6672C154.112 33.5298 155.579 31.4453 156.725 29.2344C157.52 27.6998 158.105 26.0181 158.363 24.3511C158.635 22.5974 157.26 21.8918 155.391 22.6018C153.257 23.4132 152.011 25.017 150.822 26.656C149.139 28.9816 147.746 31.4071 147.509 34.0913ZM186 29.1977C187.931 28.8508 191.156 27.4013 192.83 26.0548C193.461 25.5477 194.082 24.9479 194.427 24.2776C194.662 23.8234 194.595 23.0781 194.308 22.6474C194.125 22.3739 193.25 22.2799 192.751 22.3739C190.654 22.7694 186.282 27.2044 186 29.1977Z" fill="url(#paint1_linear_133_3)"/>
<path d="M92.577 33.265C91.9781 34.0926 91.4029 34.935 90.7716 35.742C90.3025 36.3417 89.8114 36.9386 89.2435 37.4648C86.6165 39.9021 82.8611 39.2229 81.4968 36.058C81.1634 35.2833 80.9908 34.4543 80.684 33.4503C80.3595 33.8927 80.1147 34.2382 79.858 34.5763C79.1913 35.4568 78.5984 36.3917 77.8358 37.2032C75.2944 39.9065 71.6674 39.392 69.9977 36.1786C68.9696 34.2 69.4578 32.3492 70.2897 30.4603C71.0523 28.7301 71.7927 26.9867 72.3872 25.208C72.5553 24.7023 72.3577 23.6895 72.0096 23.5572C71.4078 23.3293 70.4431 23.4234 69.8339 23.7115C67.9489 24.6038 66.9075 26.2311 66.1273 27.8643C64.6051 31.0527 63.2967 34.3205 61.9619 37.5751C61.6506 38.3336 61.2627 38.7878 60.2863 38.707C59.7907 38.6658 59.2877 38.6834 58.7877 38.6746C57.0147 38.6423 56.9041 38.5115 57.4779 37.0135C58.6962 33.8339 59.9485 30.6646 61.1344 27.4776C61.4559 26.6148 61.6934 25.7048 61.7686 24.8037C61.807 24.3392 61.4058 23.8467 61.2037 23.3661C60.7332 23.6204 60.0812 23.7777 59.8261 24.1466C58.9263 25.452 58.1741 26.8367 57.3422 28.1788C56.9955 28.7404 56.5884 29.2725 56.2094 29.8179C56.025 29.7591 55.8421 29.7003 55.6577 29.6415C55.6961 29.2152 55.5899 28.7213 55.7993 28.3743C56.7359 26.8323 57.6401 25.255 58.7862 23.8335C60.7184 21.4389 63.3734 21.7491 64.8027 24.4568C65.1449 25.1051 65.3544 25.8092 65.6641 26.5883C66.291 25.7122 66.8043 24.8934 67.4267 24.1437C70.2528 20.7421 74.1026 22.0901 75.7693 25.1536C76.7694 26.9925 76.1012 28.7448 75.5142 30.4853C74.995 32.0214 74.2398 33.4943 73.7043 35.0261C73.3961 35.9051 72.9093 37.0165 74.051 37.6339C75.2959 38.3071 76.2826 37.3884 76.8417 36.6005C78.3063 34.5366 79.5571 32.3551 80.9245 30.2354C81.3448 29.5827 81.9422 29.0153 82.3228 28.3479C82.8567 27.4115 83.2668 26.4207 83.724 25.4505C83.7712 25.3506 83.7815 25.2374 83.8169 25.1315C84.4261 23.3425 84.4247 23.3587 82.3302 23.1103C82.0514 23.0779 81.8124 22.7839 81.5543 22.6119C81.805 22.4738 82.0912 22.1842 82.3036 22.2209C84.5058 22.5987 85.3568 21.5785 85.7344 19.8719C85.9218 19.0222 86.3215 18.199 86.7139 17.3964C86.851 17.1141 87.2375 16.7555 87.5369 16.7349C88.6874 16.657 89.8468 16.704 91.2038 16.704C90.5606 18.6091 89.9824 20.3217 89.3216 22.2797C90.8733 22.2797 92.1256 22.2797 93.3794 22.2797C93.431 22.4267 93.4811 22.5723 93.5328 22.7193C93.1802 22.8883 92.844 23.1485 92.4693 23.2044C91.9014 23.2881 91.2893 23.3117 90.7273 23.2176C89.3276 22.9824 88.8275 23.6586 88.4809 24.6802C87.3776 27.9304 86.202 31.1615 85.112 34.4146C84.9055 35.0305 84.8819 35.7185 84.9158 36.3682C84.9896 37.7706 86.1504 38.2719 87.4986 37.4766C89.3379 36.3917 90.2199 34.6542 91.2008 33.0137C91.8749 31.8862 92.4015 30.6911 92.9959 29.5268C93.08 29.3607 93.1331 29.1432 93.282 29.0491C95.0933 27.9186 95.0506 26.0003 95.8412 24.4392C95.8913 24.3407 95.8943 24.2245 95.9311 24.1202C96.527 22.4355 96.527 22.437 98.5699 22.4723C101.082 22.5179 101.141 22.5326 100.427 24.6258C99.452 27.4909 98.3649 30.325 97.3486 33.1798C97.0757 33.9442 96.7026 34.735 96.7173 35.5097C96.7306 36.2433 96.9563 37.2046 97.5168 37.6412C98.3147 38.263 99.3443 37.6883 99.8974 37.0518C101.1 35.6685 102.284 34.2455 103.228 32.7211C104.412 30.8116 105.371 28.8124 106.932 27.0749C108.808 24.986 111.013 23.3146 113.855 22.3973C116.773 21.4551 119.108 22.8148 119.463 25.549C119.683 27.2395 119.412 28.8374 118.232 30.2354C117.235 31.4172 115.96 31.5907 114.786 30.7572C113.714 29.9943 113.633 28.6463 114.698 27.6599C115.261 27.1366 115.965 26.7265 116.63 26.2928C117.642 25.6328 117.962 24.7008 117.41 23.9232C116.875 23.1676 115.777 23.0456 114.65 23.6645C112.821 24.667 111.978 26.3149 111.109 27.9363C109.975 30.0501 109.314 32.2449 109.584 34.616C109.924 37.603 112.574 38.7672 115.45 37.1458C117.771 35.8375 119.139 33.8148 120.497 31.8009C121.068 30.9557 121.53 30.0531 122.126 29.2225C122.304 28.9741 122.767 28.8844 123.101 28.7227C123.148 29.0785 123.382 29.5415 123.211 29.7753C121.514 32.1067 120.019 34.6116 117.946 36.6578C113.911 40.6386 107.267 39.0612 105.558 33.8986C105.418 33.4738 105.172 33.0769 104.917 32.5491C103.932 33.9309 103.089 35.1349 102.218 36.3226C101.949 36.6887 101.616 37.0209 101.287 37.3502C100.018 38.6217 98.5035 39.3523 96.5359 38.8113C94.5963 38.2792 93.0018 36.402 92.8897 34.6071C92.8631 34.1779 92.8853 33.7472 92.8853 33.3179C92.7894 33.3047 92.6832 33.2841 92.577 33.265Z" fill="url(#paint2_linear_133_3)"/>
<path d="M128.425 40.8445C129.427 39.8522 130.496 38.907 131.418 37.8604C135.218 33.5474 137.842 28.6626 140.041 23.6087C141.432 20.4115 142.777 17.1687 143.696 13.8509C144.516 10.8932 144.79 7.80919 145.147 4.76629C145.22 4.14742 144.74 3.34627 144.237 2.845C143.694 2.30404 143.606 1.76749 144.104 1.43086C144.913 0.884018 145.869 0.322481 146.839 0.188711C147.919 0.040241 148.822 0.747311 149.211 1.66753C149.538 2.44222 149.771 3.27865 149.839 4.10038C150.077 6.98599 149.363 9.78781 148.525 12.5382C146.771 18.2976 144.326 23.8425 141.196 29.1345C138.761 33.252 136.134 37.2768 132.561 40.7445C131.046 42.2145 129.381 43.514 127.163 44.1667C125.649 44.6121 124.257 44.5151 123.071 43.589C121.971 42.729 121.903 41.6324 122.217 40.377C123.385 35.7098 124.661 31.0514 125.493 26.3341C126.41 21.1303 126.937 15.8545 125.673 10.6198C125.37 9.37033 124.758 8.08261 123.913 7.04773C121.807 4.46641 117.082 4.98238 115.64 7.87387C115.439 8.27518 115.605 8.80879 115.448 9.2395C115.265 9.74518 115.017 10.5096 114.619 10.611C114.025 10.761 113.072 10.6184 112.628 10.2597C111.675 9.4894 111.756 8.41042 112.225 7.402C113.507 4.64575 116.124 3.48445 119.252 3.16399C124.531 2.62303 127.648 5.06764 129.706 9.08074C131.074 11.7517 131.436 14.6241 131.554 17.5288C131.771 22.9296 131.207 28.2657 129.872 33.5386C129.322 35.7113 128.734 37.8766 128.176 40.0478C128.124 40.2477 128.169 40.4652 128.169 40.6755C128.251 40.7328 128.338 40.7886 128.425 40.8445Z" fill="url(#paint3_linear_133_3)"/>
<path d="M228.283 16.5427C228.278 17.9348 226.797 19.2534 225.278 19.221C223.909 19.1916 222.769 18.1626 222.778 16.966C222.788 15.6254 224.309 14.2598 225.789 14.2642C227.107 14.2671 228.287 15.3461 228.283 16.5427Z" fill="url(#paint4_linear_133_3)"/>
<path d="M99.8014 20.2706C98.4842 20.2617 97.521 19.3606 97.5298 18.1493C97.5416 16.7867 98.76 15.6636 100.226 15.6636C101.555 15.6636 102.539 16.5647 102.53 17.7745C102.521 19.0799 101.21 20.2794 99.8014 20.2706Z" fill="url(#paint5_linear_133_3)"/>
<defs>
<linearGradient id="paint0_linear_133_3" x1="30.6641" y1="46.8292" x2="30.6641" y2="1.8662" gradientUnits="userSpaceOnUse">
<stop stop-color="#B88521"/>
<stop offset="1" stop-color="#6E5222"/>
</linearGradient>
<linearGradient id="paint1_linear_133_3" x1="187.793" y1="38.8984" x2="187.793" y2="6.9563" gradientUnits="userSpaceOnUse">
<stop stop-color="#B88521"/>
<stop offset="1" stop-color="#6E5222"/>
</linearGradient>
<linearGradient id="paint2_linear_133_3" x1="89.4704" y1="38.9968" x2="89.4704" y2="16.6943" gradientUnits="userSpaceOnUse">
<stop stop-color="#B88521"/>
<stop offset="1" stop-color="#6E5222"/>
</linearGradient>
<linearGradient id="paint3_linear_133_3" x1="130.882" y1="44.4252" x2="130.882" y2="0.170939" gradientUnits="userSpaceOnUse">
<stop stop-color="#B88521"/>
<stop offset="1" stop-color="#6E5222"/>
</linearGradient>
<linearGradient id="paint4_linear_133_3" x1="225.53" y1="19.2217" x2="225.53" y2="14.264" gradientUnits="userSpaceOnUse">
<stop stop-color="#B88521"/>
<stop offset="1" stop-color="#6E5222"/>
</linearGradient>
<linearGradient id="paint5_linear_133_3" x1="100.031" y1="20.27" x2="100.031" y2="15.663" gradientUnits="userSpaceOnUse">
<stop stop-color="#B88521"/>
<stop offset="1" stop-color="#6E5222"/>
</linearGradient>
</defs>
</svg>
