<svg width="60" height="60" viewBox="0 0 60 60" fill="none" xmlns="http://www.w3.org/2000/svg">
<path d="M30.55 51.6246C30.1 52.0746 29.3 52.1496 28.775 51.6246C28.5409 51.3886 28.4094 51.0696 28.4094 50.7371C28.4094 50.4046 28.5409 50.0856 28.775 49.8496L37.25 41.3746L33.725 37.8496L25.25 46.3246C24.775 46.8246 23.975 46.7996 23.475 46.3246C23.2409 46.0886 23.1094 45.7696 23.1094 45.4371C23.1094 45.1046 23.2409 44.7856 23.475 44.5496L31.95 36.0746L28.425 32.5496L19.95 41.0246C19.5 41.4746 18.7 41.5496 18.175 41.0246C17.9462 40.7858 17.8184 40.4679 17.8184 40.1371C17.8184 39.8063 17.9462 39.4884 18.175 39.2496L26.65 30.7746L23.1 27.2496L14.625 35.7246C14.175 36.1746 13.375 36.2496 12.85 35.7246C12.6212 35.4858 12.4934 35.1679 12.4934 34.8371C12.4934 34.5063 12.6212 34.1884 12.85 33.9496L23.8 22.9996L28.475 27.6496C30.85 30.0246 34.95 29.9996 37.325 27.6496C39.775 25.1996 39.775 21.2496 37.325 18.7996L32.675 14.1496L33.375 13.4496C35.325 11.4996 38.5 11.4996 40.45 13.4496L51.05 24.0496C53 25.9996 53 29.1746 51.05 31.1246L30.55 51.6246ZM54.575 34.6746C56.4479 32.7963 57.4996 30.2521 57.4996 27.5996C57.4996 24.9471 56.4479 22.4029 54.575 20.5246L43.975 9.92459C42.0968 8.05172 39.5525 7 36.9 7C34.2476 7 31.7033 8.05172 29.825 9.92459L29.125 10.6246L28.425 9.92459C26.5468 8.05172 24.0025 7 21.35 7C18.6976 7 16.1533 8.05172 14.275 9.92459L5.42504 18.7746C3.73379 20.4601 2.70287 22.696 2.51939 25.0767C2.33591 27.4573 3.01203 29.8249 4.42504 31.7496L8.05004 28.1246C7.56677 27.181 7.39593 26.1082 7.5622 25.0612C7.72847 24.0141 8.22323 23.0471 8.97504 22.2996L17.825 13.4496C19.775 11.4996 22.95 11.4996 24.9 13.4496L33.8 22.3496C34.25 22.7996 34.325 23.5996 33.8 24.1246C33.275 24.6496 32.475 24.5746 32.025 24.1246L23.8 15.9246L9.30004 30.3996C6.85004 32.8246 6.85004 36.7996 9.30004 39.2496C10.275 40.2246 11.525 40.8246 12.85 40.9996C13.0251 42.3439 13.6398 43.5926 14.5984 44.5512C15.557 45.5098 16.8057 46.1245 18.15 46.2996C18.3251 47.6439 18.9398 48.8926 19.8984 49.8512C20.857 50.8098 22.1057 51.4245 23.45 51.5996C23.625 52.9496 24.225 54.1746 25.2 55.1496C26.375 56.3246 27.95 56.9746 29.625 56.9746C31.3 56.9746 32.875 56.3246 34.05 55.1496L54.575 34.6746Z" fill="#C6B198"/>
</svg>
