<svg width="60" height="60" viewBox="0 0 60 60" fill="none" xmlns="http://www.w3.org/2000/svg">
<path d="M24.2 36.225L30 31.825L35.775 36.225L33.575 29.1L39.375 24.5H32.275L30 17.475L27.725 24.5H20.625L26.4 29.1L24.2 36.225ZM50 27C50 15.95 41.05 7 30 7C18.95 7 10 15.95 10 27C10 32.075 11.9 36.675 15 40.2V59.5L30 54.5L45 59.5V40.2C48.2236 36.5588 50.0022 31.8631 50 27ZM30 12C38.275 12 45 18.725 45 27C45 35.275 38.275 42 30 42C21.725 42 15 35.275 15 27C15 18.725 21.725 12 30 12Z" fill="#C6B198"/>
</svg>
