<svg width="63" height="62" viewBox="0 0 63 62" fill="none" xmlns="http://www.w3.org/2000/svg">
<path fill-rule="evenodd" clip-rule="evenodd" d="M59.7151 37.9858C59.646 37.7281 59.6837 37.4539 59.8143 37.2212C61.8431 33.6078 63 29.439 63 25C63 11.1929 51.8071 0 38 0C24.1929 0 13 11.1929 13 25C13 38.8071 24.1929 50 38 50C42.4392 50 46.6081 48.843 50.2217 46.814C50.4544 46.6834 50.7286 46.6457 50.9864 46.7148L61.237 49.4615C61.9806 49.6607 62.661 48.9803 62.4618 48.2367L59.7151 37.9858Z" fill="#F1F1F1"/>
<path fill-rule="evenodd" clip-rule="evenodd" d="M25 56C38.8071 56 50 44.8071 50 31C50 17.1929 38.8071 6 25 6C11.1929 6 0 17.1929 0 31C0 37.84 2.74691 44.0384 7.19775 48.5522C7.38631 48.7434 7.49504 49 7.49504 49.2686L7.49504 60.0082C7.49504 60.778 8.32838 61.2591 8.99504 60.8742L18.7249 55.2567C18.7338 55.2515 18.7338 55.2386 18.7249 55.2334C18.7113 55.2256 18.7198 55.2046 18.735 55.2085C20.7372 55.7252 22.8365 56 25 56Z" fill="#C6B198"/>
<circle cx="12.5" cy="30.5" r="3.5" fill="white"/>
<circle cx="24.5" cy="30.5" r="3.5" fill="white"/>
<circle cx="36.5" cy="30.5" r="3.5" fill="white"/>
</svg>
