<svg width="16" height="17" viewBox="0 0 16 17" fill="none" xmlns="http://www.w3.org/2000/svg">
<path d="M3.1675 7.44125C4.4275 9.9175 6.4575 11.9387 8.93375 13.2075L10.8587 11.2825C11.095 11.0463 11.445 10.9675 11.7513 11.0725C12.7312 11.3962 13.79 11.5712 14.875 11.5712C15.3562 11.5712 15.75 11.965 15.75 12.4462V15.5C15.75 15.9812 15.3562 16.375 14.875 16.375C6.65875 16.375 0 9.71625 0 1.5C0 1.01875 0.39375 0.625 0.875 0.625H3.9375C4.41875 0.625 4.8125 1.01875 4.8125 1.5C4.8125 2.59375 4.9875 3.64375 5.31125 4.62375C5.4075 4.93 5.3375 5.27125 5.0925 5.51625L3.1675 7.44125Z" fill="black"/>
</svg>
