<svg width="25" height="25" viewBox="0 0 25 25" fill="none" xmlns="http://www.w3.org/2000/svg">
<path d="M24.1186 14.5883C24.2468 13.8833 24.3155 13.1627 24.3155 12.442C24.3155 10.8441 24.003 9.29314 23.3873 7.8362C22.7935 6.42624 21.9402 5.16042 20.8557 4.07319C19.7803 2.9923 18.5054 2.13139 17.1021 1.53841C15.6457 0.921168 14.1018 0.607845 12.5078 0.607845C11.7577 0.607845 11.0045 0.67991 10.2732 0.820905C9.26121 0.283316 8.13364 0.00152335 6.98838 0C5.12253 0 3.36606 0.730041 2.04715 2.05226C1.39633 2.70137 0.880308 3.47337 0.52893 4.32363C0.177552 5.17389 -0.00221581 6.08555 2.06128e-05 7.00589C2.06128e-05 8.19652 0.306309 9.36834 0.878254 10.4023C0.762615 11.0728 0.700107 11.759 0.700107 12.442C0.700107 14.04 1.01265 15.5909 1.62835 17.0479C2.22217 18.4578 3.07227 19.7236 4.15678 20.8109C5.24129 21.8981 6.50395 22.7503 7.91037 23.3457C9.3668 23.9629 10.9107 24.2762 12.5047 24.2762C13.1985 24.2762 13.8924 24.2136 14.5737 24.0914C15.6207 24.6835 16.8021 25 18.0116 25C19.8775 25 21.6339 24.2731 22.9529 22.9477C24.2749 21.6255 25 19.8646 25 17.9941C25.0031 16.8035 24.6968 15.6285 24.1186 14.5883ZM21.3652 21.3561C20.4682 22.2584 19.2836 22.7472 18.0147 22.7472C17.199 22.7472 16.3958 22.5342 15.6832 22.13L14.98 21.732L14.183 21.873C13.6267 21.9733 13.0641 22.0234 12.5078 22.0234C11.2139 22.0234 9.96687 21.7696 8.78548 21.2683C7.65096 20.7889 6.62896 20.0996 5.7476 19.2161C4.87514 18.3444 4.17989 17.3112 3.70048 16.1737C3.20041 14.9925 2.95038 13.7423 2.95038 12.4452C2.95038 11.9 3.00039 11.3423 3.09415 10.7908L3.23167 10.0044L2.84412 9.30568C2.45324 8.60247 2.24777 7.81091 2.24717 7.00589C2.24717 5.7338 2.73786 4.54631 3.63484 3.64707C4.53495 2.74784 5.71948 2.25592 6.98838 2.25592C7.76667 2.25803 8.53268 2.45055 9.21991 2.81677L9.91999 3.18649L10.6951 3.03609C11.2858 2.9233 11.8952 2.86377 12.5078 2.86377C13.8017 2.86377 15.0488 3.11756 16.227 3.61574C17.3678 4.09826 18.3867 4.78757 19.2649 5.668C20.1463 6.54844 20.8338 7.573 21.3151 8.7135C21.8152 9.89472 22.0652 11.1449 22.0652 12.442C22.0652 13.0185 22.0121 13.6013 21.9058 14.181L21.759 14.9799L22.1528 15.6881C22.5465 16.393 22.7528 17.192 22.7528 17.9972C22.7528 19.2725 22.2621 20.4568 21.3652 21.3561V21.3561ZM14.7331 11.0666L11.9702 10.4524C10.9201 10.2112 9.71059 9.89472 9.71059 8.90149C9.71059 7.90826 10.5576 7.21268 12.089 7.21268C15.1738 7.21268 14.8925 9.33701 16.4239 9.33701C17.2303 9.33701 17.9366 8.86076 17.9366 8.04612C17.9366 6.14112 14.8925 4.70924 12.3109 4.70924C9.50744 4.70924 6.5227 5.90299 6.5227 9.08008C6.5227 10.6091 7.06652 12.2384 10.0731 12.9935L13.8048 13.9272C14.9331 14.206 15.2175 14.8421 15.2175 15.4186C15.2175 16.3742 14.2705 17.3079 12.5547 17.3079C9.20428 17.3079 9.66996 14.723 7.87599 14.723C7.06964 14.723 6.48519 15.2807 6.48519 16.0734C6.48519 17.6213 8.36043 19.6892 12.5547 19.6892C16.5458 19.6892 18.5242 17.7623 18.5242 15.1773C18.5242 13.5136 17.7585 11.7433 14.7331 11.0666Z" fill="black"/>
</svg>
