<svg width="50" height="50" viewBox="0 0 50 50" fill="none" xmlns="http://www.w3.org/2000/svg">
<g clip-path="url(#clip0_117_1003)">
<path d="M13.2151 42.8233L14.0325 43.2274C17.4387 45.2473 21.2534 46.1899 25.0682 46.1899C37.0575 46.1899 46.8668 36.4942 46.8668 24.6438C46.8668 18.988 44.5506 13.4668 40.4635 9.42681C36.3762 5.38684 30.9264 3.09766 25.0682 3.09766C13.0789 3.09766 3.26937 12.7934 3.4057 24.7785C3.4057 28.8183 4.63187 32.7237 6.67543 36.0901L7.22035 36.8982L5.04066 44.8434L13.2151 42.8233Z" fill="#00E676"/>
<path d="M42.7799 7.27181C38.1477 2.55869 31.7443 0 25.2047 0C11.3082 0 0.136328 11.177 0.272461 24.778C0.272461 29.0873 1.49863 33.262 3.54238 37.0324L0 49.8255L13.2154 46.4589C16.8939 48.479 20.9811 49.4216 25.0686 49.4216C38.8289 49.4216 50.0008 38.2444 50.0008 24.6436C50.0008 18.045 47.4121 11.8504 42.7801 7.27181H42.7799ZM25.2047 45.2471C21.5262 45.2471 17.8477 44.3046 14.7141 42.4193L13.8967 42.0153L5.99473 44.0351L8.03828 36.3595L7.49336 35.5514C1.49863 25.9903 4.35977 13.3317 14.1691 7.40637C23.9785 1.48127 36.649 4.30927 42.6437 14.005C48.6383 23.7008 45.7771 36.2245 35.968 42.1498C32.8342 44.1697 29.0195 45.2469 25.2047 45.2469V45.2471ZM37.1939 30.2996L35.6953 29.6263C35.6953 29.6263 33.5156 28.6836 32.1531 28.0102C32.0168 28.0102 31.8807 27.8755 31.7443 27.8755C31.3355 27.8755 31.0631 28.0102 30.7906 28.145C30.7906 28.145 30.6545 28.2795 28.7471 30.4342C28.6107 30.7035 28.3383 30.8382 28.0658 30.8382H27.9295C27.7934 30.8382 27.5209 30.7035 27.3846 30.5689L26.7033 30.2996C25.2047 29.6263 23.8424 28.8181 22.7523 27.7409C22.4799 27.4716 22.0711 27.2023 21.7986 26.933C20.8449 25.9903 19.8912 24.9129 19.2102 23.701L19.0738 23.4317C18.9377 23.2969 18.9377 23.1624 18.8014 22.893C18.8014 22.6237 18.8014 22.3544 18.9377 22.2197C18.9377 22.2197 19.4826 21.5463 19.8912 21.1425C20.1639 20.873 20.3 20.4691 20.5725 20.1998C20.8449 19.7958 20.9812 19.2571 20.8449 18.8531C20.7088 18.1797 19.0738 14.5438 18.6652 13.7359C18.3926 13.3319 18.1203 13.1973 17.7115 13.0625H16.2129C15.9402 13.0625 15.668 13.1973 15.3953 13.1973L15.259 13.3319C14.9865 13.4666 14.7141 13.7359 14.4416 13.8705C14.1691 14.14 14.0328 14.4091 13.7604 14.6786C12.8066 15.8905 12.2617 17.3718 12.2617 18.8531C12.2617 19.9303 12.5342 21.0077 12.943 21.9504L13.0793 22.3544C14.3055 24.9129 15.9402 27.2023 18.1203 29.2222L18.6652 29.7608C19.0738 30.1649 19.4826 30.4342 19.7551 30.838C22.6162 33.2622 25.8859 35.0127 29.5645 35.9554C29.9732 36.09 30.5182 36.09 30.927 36.2247H32.2893C32.9705 36.2247 33.7879 35.9554 34.333 35.6861C34.7416 35.4168 35.0141 35.4168 35.2865 35.1475L35.5592 34.878C35.8316 34.6087 36.1041 34.4741 36.3766 34.2048C36.649 33.9355 36.9215 33.6662 37.0578 33.3967C37.3303 32.8581 37.4664 32.1847 37.6027 31.5116V30.5689C37.6027 30.5689 37.4664 30.4342 37.1939 30.2996Z" fill="white"/>
</g>
<defs>
<clipPath id="clip0_117_1003">
<rect width="50" height="50" fill="white"/>
</clipPath>
</defs>
</svg>
